<svg width="920" height="260" viewBox="0 0 920 260" fill="none" xmlns="http://www.w3.org/2000/svg" role="img" aria-labelledby="title desc">
  <title id="title">Open 2 Technology - Primary Logo Dark</title>
  <desc id="desc">Futuristic O2T symbol with wordmark for dark backgrounds.</desc>
  <defs>
    <linearGradient id="g1" x1="20" y1="20" x2="220" y2="220" gradientUnits="userSpaceOnUse">
      <stop offset="0" stop-color="#6FA7FF"/>
      <stop offset="0.55" stop-color="#9188FF"/>
      <stop offset="1" stop-color="#C278FF"/>
    </linearGradient>
  </defs>

  <g transform="translate(24 24)">
    <circle cx="90" cy="106" r="72" stroke="url(#g1)" stroke-width="18" stroke-linecap="round" stroke-dasharray="340 120" transform="rotate(-28 90 106)"/>
    <path d="M56 86C67 68 90 61 111 68C128 74 138 89 133 103C129 116 114 121 98 126C80 132 67 141 61 154C55 168 59 184 74 193C89 202 112 201 130 190" stroke="url(#g1)" stroke-width="16" stroke-linecap="round" stroke-linejoin="round"/>
    <path d="M152 68H216M184 68V196" stroke="url(#g1)" stroke-width="16" stroke-linecap="round"/>
  </g>

  <g transform="translate(290 72)">
    <text x="0" y="58" fill="#F5F8FF" font-size="64" font-family="Manrope, Sora, Montserrat, Arial, sans-serif" font-weight="700" letter-spacing="0.2">Open 2 Technology</text>
    <text x="2" y="100" fill="#B8C3DC" font-size="28" font-family="Manrope, Sora, Montserrat, Arial, sans-serif" font-weight="600" letter-spacing="3.2">O2T</text>
  </g>
</svg>
