<svg width="920" height="260" viewBox="0 0 920 260" fill="none" xmlns="http://www.w3.org/2000/svg" role="img" aria-labelledby="title desc">
  <title id="title">O2T Concept 3 - Open Portal</title>
  <desc id="desc">An open portal shape where 2 is a data path and T is the final destination.</desc>
  <defs>
    <linearGradient id="g3" x1="20" y1="24" x2="236" y2="220" gradientUnits="userSpaceOnUse">
      <stop offset="0" stop-color="#2563EB"/>
      <stop offset="1" stop-color="#9333EA"/>
    </linearGradient>
  </defs>
  <g transform="translate(24 24)">
    <rect x="24" y="36" width="128" height="140" rx="40" stroke="url(#g3)" stroke-width="14"/>
    <path d="M162 106H236" stroke="url(#g3)" stroke-width="14" stroke-linecap="round"/>
    <path d="M178 82C197 74 214 84 216 96C218 106 208 113 196 118C183 123 174 131 174 141C174 152 186 159 200 159C214 160 226 154 236 145" stroke="url(#g3)" stroke-width="12" stroke-linecap="round"/>
    <path d="M202 54H250M226 54V178" stroke="url(#g3)" stroke-width="12" stroke-linecap="round"/>
  </g>
  <g transform="translate(290 74)">
    <text x="0" y="56" fill="#0F172A" font-size="62" font-family="Sora, Manrope, Montserrat, Arial, sans-serif" font-weight="700">Open 2 Technology</text>
    <text x="2" y="98" fill="#334155" font-size="26" font-family="Sora, Manrope, Montserrat, Arial, sans-serif" font-weight="600" letter-spacing="3">OPEN PORTAL</text>
  </g>
</svg>
